<svg width="235" height="165" viewBox="0 0 235 165" fill="none" xmlns="http://www.w3.org/2000/svg">
<path d="M132.854 159.956H104.112C103.257 155.217 102.83 148.992 102.83 141.28C98.7886 149.009 92.6152 154.858 84.3098 158.825C75.9247 162.817 66.7562 164.853 57.4841 164.784C40.0274 164.784 26.0824 158.933 15.6494 147.232C5.21644 135.531 0 120.668 0 102.642V5.06161H30.0172V98.1186C30.0172 109.712 32.8393 119.265 38.483 126.779C44.1268 134.292 52.9084 138.049 64.8281 138.049C76.7522 138.049 85.8008 134.454 91.9743 127.263C98.1478 120.073 101.235 110.466 101.235 98.4418V5.04867L129.336 4.83537L129.336 4.84082L130.073 4.83537C130.927 9.57438 131.354 15.7998 131.354 23.5115C135.4 15.7826 141.574 9.93195 149.875 5.95979C158.261 1.97133 167.429 -0.0649348 176.701 0.00157852C194.157 0.00157852 208.102 5.85221 218.535 17.5533C228.968 29.2543 234.185 44.1176 234.185 62.1431V159.724H204.167V66.6667C204.167 55.0733 201.345 45.5199 195.702 38.0064C190.058 30.4929 181.276 26.734 169.357 26.7297C157.437 26.7297 148.388 30.327 142.21 37.5217C136.033 44.7164 132.946 54.3237 132.95 66.3436V159.95H132.854L132.854 159.956Z" fill="url(#paint0_linear_1902_53)"/>
<defs>
<linearGradient id="paint0_linear_1902_53" x1="0" y1="0" x2="235.101" y2="163.416" gradientUnits="userSpaceOnUse">
<stop stop-color="#6153CC"/>
<stop offset="1" stop-color="#8A41AB"/>
</linearGradient>
</defs>
</svg>
